<?xml version="1.0" standalone="no"?>
<!DOCTYPE svg PUBLIC "-//W3C//DTD SVG 20010904//EN"
 "http://www.w3.org/TR/2001/REC-SVG-20010904/DTD/svg10.dtd">
<svg version="1.0" xmlns="http://www.w3.org/2000/svg"
 width="400.000000pt" height="400.000000pt" viewBox="0 0 400.000000 400.000000"
 preserveAspectRatio="xMidYMid meet">

<g transform="translate(0.000000,400.000000) scale(0.100000,-0.100000)"
fill="#000000" stroke="none">
<path d="M1632 2688 c-7 -7 -12 -36 -12 -65 l0 -53 -182 0 c-101 0 -188 -4
-194 -8 -20 -14 -184 -341 -178 -356 5 -14 45 -16 278 -18 l271 -3 5 -60 5
-60 315 0 315 0 5 60 5 60 185 5 185 5 88 170 c62 120 85 174 79 185 -8 13
-51 15 -276 18 l-266 2 0 53 c0 29 -5 58 -12 65 -17 17 -599 17 -616 0z m526
-155 l3 -63 244 0 c284 0 269 8 205 -107 l-40 -73 -203 -2 -202 -3 -5 -60 -5
-60 -215 0 -215 0 -5 60 -5 60 -247 3 c-158 1 -248 6 -248 12 0 6 18 46 40 90
l40 80 210 0 210 0 0 58 c0 32 3 62 7 66 4 3 102 5 217 4 l211 -3 3 -62z"/>
<path d="M2297 2628 c4 -19 3 -20 -6 -8 -6 8 -11 10 -11 4 0 -6 7 -17 16 -25
19 -16 49 -1 49 25 0 24 -19 20 -27 -6 -6 -23 -6 -23 -7 -1 -1 12 -5 24 -10
27 -5 4 -7 -4 -4 -16z m40 -10 c-3 -8 -6 -5 -6 6 -1 11 2 17 5 13 3 -3 4 -12
1 -19z"/>
<path d="M409 1733 c-11 -12 -14 -59 -14 -204 0 -236 -9 -223 155 -227 l120
-4 0 36 0 36 -74 0 c-113 0 -106 -11 -106 161 l0 149 90 0 90 0 0 35 0 35
-124 0 c-103 0 -126 -3 -137 -17z"/>
<path d="M710 1525 l0 -225 45 0 45 0 0 100 0 100 70 0 70 0 0 -100 0 -100 45
0 45 0 0 225 0 225 -45 0 -44 0 -3 -87 -3 -88 -65 0 -65 0 -3 88 -3 87 -44 0
-45 0 0 -225z"/>
<path d="M1106 1734 c-24 -24 -24 -395 1 -415 11 -10 55 -15 150 -17 l133 -4
0 36 0 36 -93 0 c-59 0 -97 4 -105 12 -7 7 -12 36 -12 65 l0 53 95 0 95 0 0
35 0 34 -92 3 -93 3 0 50 0 50 93 3 92 3 0 34 0 35 -124 0 c-100 0 -128 -3
-140 -16z"/>
<path d="M1384 1733 c3 -10 28 -103 57 -208 35 -131 57 -195 71 -207 24 -22
115 -25 142 -5 12 9 36 79 72 213 30 109 54 205 54 212 0 7 -15 12 -40 12 -22
0 -40 -2 -40 -4 0 -17 -94 -363 -100 -370 -9 -9 -9 -11 -55 164 -20 74 -40
152 -46 173 l-10 37 -55 0 c-48 0 -55 -2 -50 -17z"/>
<path d="M1800 1525 l0 -225 45 0 45 0 0 190 0 190 69 0 c76 0 81 -4 81 -65 0
-41 -14 -53 -70 -57 -63 -4 -62 -23 13 -148 l63 -105 57 -3 c31 -2 57 0 57 3
0 3 -23 39 -50 80 -67 99 -68 102 -31 110 43 9 51 30 51 133 0 124 2 122 -183
122 l-147 0 0 -225z"/>
<path d="M2196 1728 c-13 -18 -16 -56 -16 -203 0 -99 4 -185 8 -191 17 -26 56
-34 172 -34 115 0 122 1 145 25 25 24 25 26 25 202 0 238 12 223 -175 223
-137 0 -145 -1 -159 -22z m232 -200 l-3 -153 -70 0 -70 0 -3 153 -3 152 76 0
76 0 -3 -152z"/>
<path d="M2582 1528 l3 -223 133 -3 132 -3 0 36 0 35 -85 0 -85 0 0 190 0 190
-50 0 -50 0 2 -222z"/>
<path d="M2887 1732 c-15 -16 -17 -45 -17 -203 0 -101 4 -189 8 -195 17 -26
56 -34 171 -34 l121 0 0 35 0 35 -95 0 c-108 0 -115 5 -115 84 l0 46 95 0 95
0 0 35 0 34 -92 3 -93 3 -3 29 c-2 15 -1 39 2 52 6 23 10 24 96 24 l90 0 0 35
0 35 -123 0 c-107 0 -126 -2 -140 -18z"/>
<path d="M3172 1718 c3 -33 3 -33 66 -36 l62 -3 0 -189 0 -190 45 0 45 0 0
190 0 190 65 0 65 0 0 35 0 35 -176 0 -175 0 3 -32z"/>
<path d="M3580 1737 c0 -10 5 -15 10 -12 6 3 10 1 10 -4 0 -6 -4 -11 -10 -11
-5 0 -10 -4 -10 -10 0 -16 17 -11 24 7 4 9 0 23 -9 32 -13 14 -15 14 -15 -2z"/>
<path d="M3557 1710 c-3 -11 -2 -20 3 -20 12 0 21 28 11 35 -5 2 -11 -4 -14
-15z"/>
</g>
</svg>
