<?xml version="1.0" standalone="no"?>
<!DOCTYPE svg PUBLIC "-//W3C//DTD SVG 20010904//EN"
 "http://www.w3.org/TR/2001/REC-SVG-20010904/DTD/svg10.dtd">
<svg version="1.0" xmlns="http://www.w3.org/2000/svg"
 width="400.000000pt" height="400.000000pt" viewBox="0 0 400.000000 400.000000"
 preserveAspectRatio="xMidYMid meet">

<g transform="translate(0.000000,400.000000) scale(0.100000,-0.100000)"
fill="#000000" stroke="none">
<path d="M1818 2919 c-420 -37 -765 -204 -867 -419 -37 -78 -37 -182 0 -260
156 -330 841 -513 1458 -389 334 67 583 217 664 399 31 70 28 180 -7 249 -37
74 -78 124 -146 176 -243 187 -674 283 -1102 244z m578 -157 c378 -74 613
-225 614 -396 1 -132 -180 -278 -435 -351 -191 -55 -299 -68 -560 -68 -202 0
-258 3 -355 21 -167 31 -282 66 -396 122 -469 232 -232 587 456 686 142 20
542 12 676 -14z m-439 -868 c-3 -3 -12 -4 -19 -1 -8 3 -5 6 6 6 11 1 17 -2 13
-5z m130 0 c-3 -3 -12 -4 -19 -1 -8 3 -5 6 6 6 11 1 17 -2 13 -5z"/>
<path d="M1340 2615 c0 -7 7 -18 15 -22 12 -7 15 -49 17 -248 l3 -240 73 -3
72 -3 0 106 c0 58 4 105 8 105 4 0 32 -35 62 -77 101 -141 90 -133 186 -133
46 0 84 2 84 5 0 3 -43 64 -95 136 -52 72 -95 134 -95 138 0 3 36 58 79 121
44 63 77 118 75 122 -3 4 -42 8 -88 8 l-83 0 -59 -85 c-32 -46 -62 -84 -66
-85 -5 0 -8 38 -8 85 l0 85 -90 0 c-72 0 -90 -3 -90 -15z"/>
<path d="M1920 2615 c0 -9 7 -18 15 -21 13 -5 15 -42 15 -250 l0 -244 75 0 75
0 0 265 0 265 -90 0 c-74 0 -90 -3 -90 -15z"/>
<path d="M2340 2617 c0 -7 5 -18 10 -23 7 -7 -14 -83 -69 -244 -45 -128 -78
-237 -75 -241 3 -5 39 -9 79 -9 l74 0 52 165 c29 91 55 165 59 165 3 0 27 -69
54 -152 26 -84 52 -159 58 -165 7 -8 36 -13 79 -13 49 0 69 4 69 13 0 18 -162
490 -173 505 -14 18 -217 17 -217 -1z"/>
<path d="M2032 1505 c-99 -31 -156 -108 -156 -210 0 -147 133 -249 282 -215
63 14 136 73 159 129 17 41 19 124 3 166 -19 51 -89 114 -144 130 -60 18 -87
18 -144 0z m133 -77 c35 -27 55 -75 55 -133 0 -131 -103 -199 -185 -122 -68
64 -70 178 -3 246 38 39 91 42 133 9z"/>
<path d="M2800 1511 c-106 -35 -170 -116 -170 -216 0 -126 97 -218 230 -219
241 -2 320 306 106 416 -43 22 -128 32 -166 19z m119 -77 c31 -22 61 -90 61
-139 0 -49 -30 -117 -61 -139 -13 -9 -39 -16 -57 -16 -121 0 -166 204 -64 287
32 27 87 30 121 7z"/>
<path d="M3574 1491 c-53 -24 -74 -55 -74 -107 0 -57 27 -88 116 -130 58 -27
75 -41 80 -61 5 -20 2 -31 -16 -45 -28 -23 -44 -23 -118 1 l-60 18 9 -31 c5
-17 9 -31 9 -32 0 -8 105 -28 141 -27 60 1 97 19 126 62 50 75 23 137 -83 187
-41 20 -79 44 -85 55 -27 52 39 90 112 65 l39 -14 0 29 c0 22 -6 32 -26 39
-41 16 -125 11 -170 -9z"/>
<path d="M190 1295 l0 -205 55 0 54 0 3 93 3 92 58 -83 c32 -45 67 -87 77 -92
10 -6 46 -10 80 -10 60 0 62 1 42 18 -25 21 -152 198 -152 211 0 5 26 43 58
83 83 104 82 98 15 98 l-58 -1 -60 -77 -60 -76 -3 77 -3 77 -54 0 -55 0 0
-205z"/>
<path d="M610 1295 l0 -205 55 0 55 0 0 205 0 205 -55 0 -55 0 0 -205z"/>
<path d="M892 1473 c-24 -60 -132 -366 -132 -374 0 -5 20 -9 43 -9 42 0 44 2
57 40 l13 40 72 0 72 0 16 -40 c15 -40 16 -40 70 -40 l55 0 -35 98 c-19 53
-52 144 -72 202 l-38 105 -55 3 c-52 3 -56 1 -66 -25z m84 -184 l21 -59 -48 0
c-27 0 -49 3 -49 6 0 18 44 124 49 119 3 -3 15 -33 27 -66z"/>
<path d="M1406 1473 c-3 -16 -15 -100 -26 -188 -11 -88 -22 -168 -24 -177 -4
-15 3 -18 43 -18 l48 0 13 115 c7 63 16 117 19 120 4 2 25 -50 46 -116 l39
-120 40 3 40 3 41 119 c23 65 44 115 47 110 3 -5 11 -60 18 -121 l14 -113 53
0 c50 0 53 1 48 23 -2 12 -14 92 -25 177 -31 232 -22 210 -89 210 l-57 0 -38
-110 c-21 -60 -42 -110 -45 -110 -4 0 -25 50 -46 110 l-39 110 -57 0 c-55 0
-58 -1 -63 -27z"/>
<path d="M2310 1470 l0 -30 60 0 60 0 0 -175 0 -175 55 0 55 0 0 175 0 175 60
0 60 0 0 30 0 30 -175 0 -175 0 0 -30z"/>
<path d="M3120 1295 l0 -205 55 0 55 0 0 175 0 175 26 0 c103 0 104 -124 1
-142 -14 -2 -6 -20 47 -99 36 -53 72 -99 81 -103 28 -10 133 -7 114 4 -9 5
-44 50 -78 99 -56 81 -59 90 -41 96 33 10 60 54 60 97 0 87 -39 108 -205 108
l-115 0 0 -205z"/>
</g>
</svg>
