<?xml version="1.0" standalone="no"?>
<!DOCTYPE svg PUBLIC "-//W3C//DTD SVG 20010904//EN"
 "http://www.w3.org/TR/2001/REC-SVG-20010904/DTD/svg10.dtd">
<svg version="1.0" xmlns="http://www.w3.org/2000/svg"
 width="400.000000pt" height="400.000000pt" viewBox="0 0 400.000000 400.000000"
 preserveAspectRatio="xMidYMid meet">

<g transform="translate(0.000000,400.000000) scale(0.100000,-0.100000)"
fill="#000000" stroke="none">
<path d="M585 2333 c-157 -12 -267 -69 -315 -164 -53 -101 -46 -268 13 -357
35 -51 108 -105 165 -122 70 -20 201 -29 288 -19 153 17 235 63 289 160 28 51
30 60 30 169 0 106 -2 119 -27 166 -51 97 -139 146 -296 164 -48 5 -91 9 -97
8 -5 -1 -28 -3 -50 -5z m235 -87 c19 -10 50 -32 68 -49 l32 -31 -102 -50 c-84
-42 -109 -59 -137 -97 l-34 -46 -31 41 c-24 32 -54 52 -133 91 -57 28 -103 55
-103 62 0 19 72 73 120 88 67 22 273 16 320 -9z m-285 -259 c36 -18 77 -61 97
-101 l15 -28 27 46 c35 60 74 89 174 125 119 44 116 46 109 -47 -5 -87 -27
-140 -74 -183 -53 -50 -91 -63 -202 -67 -234 -10 -329 59 -339 245 l-4 83 84
-29 c46 -16 97 -35 113 -44z"/>
<path d="M1320 2006 l0 -216 70 0 70 0 0 150 0 150 50 0 50 0 0 -150 0 -150
70 0 69 0 3 148 3 147 28 3 c16 2 39 -4 53 -13 23 -15 24 -18 24 -150 l0 -135
70 0 c63 0 70 2 70 20 0 11 3 20 6 20 3 0 17 -9 31 -20 24 -19 41 -20 253 -20
l227 0 186 150 c102 83 188 150 191 150 3 0 6 -67 6 -150 l0 -150 181 0 c199
0 220 5 254 62 l17 30 18 -30 c37 -60 46 -62 258 -62 l194 0 -4 179 c-3 174
-4 180 -27 205 -36 38 -79 46 -243 46 l-148 0 0 -60 0 -60 128 0 c121 0 152
-6 152 -31 0 -4 -56 -9 -124 -10 -111 -4 -128 -7 -155 -27 l-31 -23 0 43 c0
64 -33 123 -84 147 -38 19 -61 21 -244 21 l-201 0 -196 -155 c-108 -85 -198
-155 -200 -155 -3 0 -5 53 -5 119 0 180 -15 191 -262 191 l-148 0 0 -60 0 -60
128 0 c121 0 152 -6 152 -31 0 -4 -55 -9 -123 -10 -96 -3 -129 -8 -150 -21
-14 -10 -29 -18 -32 -18 -3 0 -5 21 -5 46 0 59 -22 105 -63 129 -29 18 -55 20
-299 23 l-268 3 0 -215z m1850 57 c18 -22 21 -37 17 -73 -7 -66 -32 -82 -121
-78 l-71 3 -3 88 -3 87 80 0 c75 0 81 -2 101 -27z m-910 -133 l0 -30 -79 0
c-82 0 -110 13 -97 45 4 12 24 15 91 15 l85 0 0 -30z m1370 0 l0 -30 -74 0
c-86 0 -106 6 -106 29 0 28 9 31 97 31 l83 0 0 -30z"/>
<path d="M2420 2155 l0 -65 86 0 86 0 74 61 c41 34 74 63 74 65 0 2 -72 4
-160 4 l-160 0 0 -65z"/>
<path d="M2582 1850 l-74 -60 161 0 161 0 0 60 0 60 -87 0 -88 0 -73 -60z"/>
</g>
</svg>
