<?xml version="1.0" standalone="no"?>
<!DOCTYPE svg PUBLIC "-//W3C//DTD SVG 20010904//EN"
 "http://www.w3.org/TR/2001/REC-SVG-20010904/DTD/svg10.dtd">
<svg version="1.0" xmlns="http://www.w3.org/2000/svg"
 width="512.000000pt" height="512.000000pt" viewBox="0 0 512.000000 512.000000"
 preserveAspectRatio="xMidYMid meet">

<g transform="translate(0.000000,512.000000) scale(0.100000,-0.100000)"
fill="#000000" stroke="none">
<path d="M755 2949 c-115 -9 -178 -25 -280 -74 -103 -49 -179 -118 -216 -193
-35 -71 -33 -169 4 -244 90 -183 368 -293 675 -266 222 19 422 130 487 270 18
39 25 70 25 118 0 248 -305 418 -695 389z m293 -70 c77 -19 125 -46 143 -81 9
-16 7 -26 -8 -47 -25 -34 -102 -72 -157 -78 l-44 -5 -7 40 c-9 56 -58 156 -86
176 -73 51 -146 -28 -183 -195 -6 -26 -7 -27 -48 -18 -141 32 -202 96 -145
153 77 77 340 104 535 55z m-175 -89 c24 -19 37 -47 51 -112 l6 -28 -84 0
c-47 0 -87 3 -90 8 -9 14 32 117 54 134 28 23 32 22 63 -2z m487 -166 c34
-165 -108 -329 -336 -388 -34 -9 -76 -16 -93 -16 l-30 0 25 37 c33 49 56 131
63 228 l6 79 35 9 c154 40 231 83 257 145 l15 36 24 -39 c13 -22 28 -63 34
-91z m-970 102 c0 -47 103 -111 226 -141 l72 -17 7 -81 c8 -100 38 -197 71
-237 l26 -30 -35 0 c-19 0 -71 10 -115 23 -249 72 -380 268 -297 445 23 50 45
68 45 38z m545 -216 c-12 -82 -26 -123 -55 -152 -25 -24 -32 -27 -52 -17 -13
6 -30 20 -38 32 -17 28 -40 114 -40 153 l0 32 96 -2 96 -1 -7 -45z"/>
<path d="M2266 2834 c-74 -23 -159 -113 -182 -189 -55 -192 63 -369 257 -383
88 -6 154 16 217 73 153 137 120 390 -62 482 -64 33 -160 40 -230 17z m174
-116 c57 -39 74 -71 78 -148 3 -56 0 -78 -18 -115 -54 -112 -210 -115 -274 -5
-32 54 -29 151 6 211 46 78 140 103 208 57z"/>
<path d="M3423 2829 c-144 -55 -219 -230 -166 -385 23 -68 102 -145 172 -169
113 -37 250 -1 324 86 46 53 67 116 67 200 0 203 -205 342 -397 268z m187
-111 c50 -35 75 -90 74 -169 0 -76 -22 -121 -74 -156 -65 -45 -170 -23 -211
43 -43 70 -33 210 19 257 56 51 138 61 192 25z"/>
<path d="M1570 2780 l0 -50 85 0 85 0 0 -225 0 -225 65 0 65 0 0 225 0 225 85
0 85 0 0 50 0 50 -235 0 -235 0 0 -50z"/>
<path d="M2676 2818 c5 -7 55 -87 111 -177 l103 -165 0 -98 0 -98 60 0 60 0 0
99 0 99 110 172 c61 94 110 173 110 175 0 3 -33 5 -72 5 l-73 0 -64 -105 c-35
-58 -67 -108 -71 -110 -4 -3 -36 44 -72 103 l-64 107 -73 3 c-57 2 -71 0 -65
-10z"/>
<path d="M3850 2780 l0 -50 85 0 85 0 0 -225 0 -225 65 0 65 0 0 225 0 225 85
0 85 0 0 50 0 50 -235 0 -235 0 0 -50z"/>
<path d="M4506 2822 c-7 -12 -216 -530 -216 -537 0 -3 30 -5 68 -3 l67 3 20
58 20 57 120 0 120 0 23 -60 24 -60 68 0 68 0 -111 275 -111 275 -78 0 c-42 0
-79 -3 -82 -8z m123 -223 c17 -47 31 -88 31 -92 0 -4 -34 -7 -75 -7 -41 0 -75
3 -75 7 0 21 74 193 80 186 4 -4 22 -47 39 -94z"/>
</g>
</svg>
